<svg xmlns="http://www.w3.org/2000/svg" xmlns:xlink="http://www.w3.org/1999/xlink" width="86" height="27" viewBox="0 0 86 27"><defs><clipPath id="a"><rect width="85.5" height="26.231" fill="#ba55da"/></clipPath><clipPath id="c"><rect width="86" height="27"/></clipPath></defs><g id="b" clip-path="url(#c)"><g transform="translate(0 0)"><g transform="translate(0 0)" clip-path="url(#a)"><path d="M25.2,46.665a6.954,6.954,0,0,1,2.717-.5l.811,3.573c-.431-.033-1.531-.049-1.68-.049a3.547,3.547,0,0,0-2.605.931,3.759,3.759,0,0,0-.943,2.791v6.3H19.629V46.367h3.7v1.762A4.3,4.3,0,0,1,25.2,46.665" transform="translate(-14.321 -33.684)" fill="#ba55da"/><path d="M58.241,59.033a6.543,6.543,0,0,1-2.617-2.444,7.147,7.147,0,0,1,0-7.1,6.546,6.546,0,0,1,2.617-2.444,8.542,8.542,0,0,1,7.556,0A6.573,6.573,0,0,1,68.4,49.493a7.147,7.147,0,0,1,0,7.1A6.569,6.569,0,0,1,65.8,59.033a8.54,8.54,0,0,1-7.556,0m6.228-3.3a4.271,4.271,0,0,0,0-5.385,3.225,3.225,0,0,0-2.444-1,3.264,3.264,0,0,0-2.456,1,4.228,4.228,0,0,0,0,5.385,3.264,3.264,0,0,0,2.456,1,3.225,3.225,0,0,0,2.444-1" transform="translate(-39.894 -33.683)" fill="#ba55da"/><path d="M98.34,59.033a6.543,6.543,0,0,1-2.617-2.444,7.147,7.147,0,0,1,0-7.1,6.546,6.546,0,0,1,2.617-2.444,8.542,8.542,0,0,1,7.556,0,6.572,6.572,0,0,1,2.606,2.444,7.147,7.147,0,0,1,0,7.1,6.569,6.569,0,0,1-2.606,2.444,8.54,8.54,0,0,1-7.556,0m6.228-3.3a4.271,4.271,0,0,0,0-5.385,3.224,3.224,0,0,0-2.444-1,3.264,3.264,0,0,0-2.457,1,4.228,4.228,0,0,0,0,5.385,3.264,3.264,0,0,0,2.457,1,3.224,3.224,0,0,0,2.444-1" transform="translate(-69.149 -33.683)" fill="#ba55da"/><path d="M152.309,59.5a8.484,8.484,0,0,1-2.531-1.03l1.29-2.779a8.1,8.1,0,0,0,2.159.931,9.047,9.047,0,0,0,2.481.36q2.456,0,2.456-1.216a.861.861,0,0,0-.67-.819,9.933,9.933,0,0,0-2.059-.422,19.848,19.848,0,0,1-2.7-.571,4.193,4.193,0,0,1-1.849-1.141,3.246,3.246,0,0,1-.781-2.332,3.655,3.655,0,0,1,.732-2.246,4.711,4.711,0,0,1,2.134-1.526,9.114,9.114,0,0,1,3.312-.546,13.01,13.01,0,0,1,2.816.31,7.888,7.888,0,0,1,2.32.856l-1.29,2.754a7.7,7.7,0,0,0-3.846-.993,3.908,3.908,0,0,0-1.861.348,1.022,1.022,0,0,0-.621.893.886.886,0,0,0,.67.868,11.811,11.811,0,0,0,2.134.472,22.852,22.852,0,0,1,2.68.583,4.027,4.027,0,0,1,1.812,1.129,3.206,3.206,0,0,1,.769,2.283,3.522,3.522,0,0,1-.744,2.208,4.749,4.749,0,0,1-2.171,1.5,9.683,9.683,0,0,1-3.387.534,12.969,12.969,0,0,1-3.25-.41" transform="translate(-109.274 -33.683)" fill="#ba55da"/><path d="M204.544,52.321a13.363,13.363,0,0,1-1.544.163,5.2,5.2,0,0,1-3.685-1.216,4.651,4.651,0,0,1-1.3-3.573V35.983h3.871v3.25h2.66v2.977h-2.66v5.434a1.822,1.822,0,0,0,.434,1.3,1.608,1.608,0,0,0,1.229.459,5.018,5.018,0,0,0,1-.177Z" transform="translate(-144.465 -26.252)" fill="#ba55da"/><path d="M238.947,54.133h-10.1a3.142,3.142,0,0,0,1.29,1.961,4.274,4.274,0,0,0,2.531.719,5.122,5.122,0,0,0,1.848-.31,4.48,4.48,0,0,0,1.5-.98l2.059,2.233a6.92,6.92,0,0,1-5.508,2.159,8.71,8.71,0,0,1-3.995-.881,6.452,6.452,0,0,1-2.68-2.444,6.729,6.729,0,0,1-.943-3.548,6.822,6.822,0,0,1,.931-3.536,6.517,6.517,0,0,1,2.556-2.457,7.913,7.913,0,0,1,7.183-.037,6.165,6.165,0,0,1,2.494,2.42,7.216,7.216,0,0,1,.906,3.66q0,.074-.074,1.042M229.89,49.84a3.17,3.17,0,0,0-1.092,2.035h6.575a3.2,3.2,0,0,0-1.092-2.022A3.265,3.265,0,0,0,232.1,49.1a3.335,3.335,0,0,0-2.208.744" transform="translate(-164.119 -33.683)" fill="#ba55da"/><path d="M288.089,46.665a6.954,6.954,0,0,1,2.717-.5l.811,3.573c-.431-.033-1.531-.049-1.68-.049a3.547,3.547,0,0,0-2.605.931,3.759,3.759,0,0,0-.943,2.791v6.3h-3.871V46.367h3.7v1.762a4.3,4.3,0,0,1,1.873-1.464" transform="translate(-206.117 -33.684)" fill="#ba55da"/><path d="M12.715,8.878a6.319,6.319,0,0,1-3.823,1.215L0,10A4.062,4.062,0,0,1,1.267,6.642,26.816,26.816,0,0,1,4.406,4.561l-2.089-1.5C4.258,1.1,6.077,1.009,9.4,2.552,9.442,1.683,9.487.84,9.532,0a4.973,4.973,0,0,1,4.713,3.306,5.105,5.105,0,0,1-1.53,5.571" transform="translate(0 0)" fill="#ba55da"/></g></g></g></svg>