<svg xmlns="http://www.w3.org/2000/svg" xmlns:xlink="http://www.w3.org/1999/xlink" width="25" height="44" viewBox="0 0 25 44"><defs><clipPath id="a"><rect width="24.148" height="43.265" fill="none"/></clipPath><clipPath id="c"><rect width="25" height="44"/></clipPath></defs><g id="b" clip-path="url(#c)"><g transform="translate(0 0.367)"><g transform="translate(0 0)" clip-path="url(#a)"><path d="M28.887,46.993a11.558,11.558,0,0,1,4.516-.824l1.348,5.938c-.716-.055-2.545-.082-2.792-.082a5.894,5.894,0,0,0-4.33,1.547,6.247,6.247,0,0,0-1.567,4.639V68.684H19.629V46.5h6.145v2.928a7.152,7.152,0,0,1,3.113-2.433" transform="translate(-10.807 -25.419)" fill="#321755"/><path d="M21.132,14.754c-1.837,1.59-4.071,1.807-6.353,2.019-.015,0-14.772-.153-14.772-.153a6.751,6.751,0,0,1,2.1-5.581A44.566,44.566,0,0,1,7.322,7.581l-3.471-2.5C7.077,1.835,10.1,1.676,15.615,4.242,15.692,2.8,15.767,1.4,15.842,0c3.923.247,6.7,2.243,7.833,5.495a8.484,8.484,0,0,1-2.542,9.259" transform="translate(0 0)" fill="#ba55da"/></g></g></g></svg>